<?xml version="1.0" encoding="utf-8"?>
<!-- Generator: Adobe Illustrator 21.0.0, SVG Export Plug-In . SVG Version: 6.00 Build 0)  -->
<svg version="1.1" id="图层_1" xmlns="http://www.w3.org/2000/svg" xmlns:xlink="http://www.w3.org/1999/xlink" x="0px" y="0px"
	 viewBox="0 0 125 71" style="enable-background:new 0 0 125 71;" xml:space="preserve">
<style type="text/css">
	.st0{fill:#2D2F30;}
	.st1{fill:#EBBE38;}
</style>
<g>
	<g>
		<path class="st0" d="M21.4,18.4h-8.8c-2.6,0-4.8,2.1-4.8,4.8v15c0,2.6,2.1,4.8,4.8,4.8h8.8c2.6,0,4.8-2.1,4.8-4.8v-15
			C26.2,20.5,24.1,18.4,21.4,18.4z M23.5,38.2c0,1.2-1,2.1-2.1,2.1h-8.8c-1.2,0-2.1-1-2.1-2.1v-9.6h9.8c0.7,0,1.3-0.6,1.3-1.3
			s-0.6-1.3-1.3-1.3h-9.8v-2.7c0-1.2,1-2.1,2.1-2.1h8.8c1.2,0,2.1,1,2.1,2.1V38.2z"/>
		<path class="st0" d="M4.9,9.4c-2.6,0-4.8,2.1-4.8,4.8v35.1c0,0.7,0.6,1.3,1.3,1.3s1.3-0.6,1.3-1.3V14.2c0-1.2,1-2.1,2.1-2.1
			c0.7,0,1.3-0.6,1.3-1.3C6.2,10,5.6,9.4,4.9,9.4z"/>
		<path class="st0" d="M29.1,9.4H12.5c-0.7,0-1.3,0.6-1.3,1.3c0,0.7,0.6,1.3,1.3,1.3h16.7c1.2,0,2.1,1,2.1,2.1v35.1
			c0,1.2-1,2.1-2.1,2.1c-0.7,0-1.3,0.6-1.3,1.3c0,0.7,0.6,1.3,1.3,1.3c2.6,0,4.8-2.1,4.8-4.8V14.2C33.9,11.6,31.8,9.4,29.1,9.4z"/>
		<path class="st0" d="M1.4,6.3h11.7c0.7,0,1.3-0.6,1.3-1.3s-0.6-1.3-1.3-1.3H2.8V1.5c0-0.7-0.6-1.3-1.3-1.3S0.1,0.8,0.1,1.5V5
			C0.1,5.7,0.7,6.3,1.4,6.3z"/>
		<path class="st0" d="M32.6,3.7H22.3V1.5c0-0.7-0.6-1.3-1.3-1.3c-0.7,0-1.3,0.6-1.3,1.3V5c0,0.7,0.6,1.3,1.3,1.3h11.7
			c0.7,0,1.3-0.6,1.3-1.3S33.3,3.7,32.6,3.7z"/>
		<path class="st0" d="M79,36.5H63V19.8h4.1c0.7,0,1.3-0.6,1.3-1.3c0-0.7-0.6-1.3-1.3-1.3H63v-3.3c0-0.7-0.6-1.3-1.3-1.3
			s-1.3,0.6-1.3,1.3v3.3h-4.1c-0.7,0-1.3,0.6-1.3,1.3c0,0.7,0.6,1.3,1.3,1.3h4.1v16.7h-16c-0.7,0-1.3,0.6-1.3,1.3
			c0,0.7,0.6,1.3,1.3,1.3h16v13.5c0,0.7,0.6,1.3,1.3,1.3s1.3-0.6,1.3-1.3V39.2h16c0.7,0,1.3-0.6,1.3-1.3
			C80.4,37.1,79.8,36.5,79,36.5z"/>
		<path class="st0" d="M50.7,6.3h7.4c0.7,0,1.3-0.6,1.3-1.3V1.5c0-0.7-0.6-1.3-1.3-1.3s-1.3,0.6-1.3,1.3v2.2h-6.1
			c-0.7,0-1.3,0.6-1.3,1.3S50,6.3,50.7,6.3z"/>
		<path class="st0" d="M65.3,6.3h7.4C73.4,6.3,74,5.7,74,5s-0.6-1.3-1.3-1.3h-6.1V1.5c0-0.7-0.6-1.3-1.3-1.3S64,0.8,64,1.5V5
			C64,5.7,64.6,6.3,65.3,6.3z"/>
		<path class="st0" d="M96,0.3c-0.5-0.2-1-0.1-1.4,0.2l-6.5,6C87.6,7,87.5,7.8,88,8.4c0.5,0.5,1.3,0.6,1.9,0.1l4.3-3.9v48.2
			c0,0.7,0.6,1.3,1.3,1.3s1.3-0.6,1.3-1.3V1.5C96.8,1,96.5,0.5,96,0.3z"/>
		<path class="st0" d="M123.8,51.5h-10.7V19.8h10.7c0.7,0,1.3-0.6,1.3-1.3c0-0.7-0.6-1.3-1.3-1.3h-10.7V6.3h10.7
			c0.7,0,1.3-0.6,1.3-1.3s-0.6-1.3-1.3-1.3h-21.1V1.5c0-0.7-0.6-1.3-1.3-1.3s-1.3,0.6-1.3,1.3V5c0,0.7,0.6,1.3,1.3,1.3h9.1v10.8
			h-9.1c-0.7,0-1.3,0.6-1.3,1.3c0,0.7,0.6,1.3,1.3,1.3h9.1v31.7h-9.1c-0.7,0-1.3,0.6-1.3,1.3c0,0.7,0.6,1.3,1.3,1.3h22.5
			c0.7,0,1.3-0.6,1.3-1.3C125.1,52.1,124.5,51.5,123.8,51.5z"/>
	</g>
	<g>
		<path class="st0" d="M0,67.3v-8.8C0,58.1,0.2,58,0.5,58S1,58.1,1,58.4v3.4h3.9v-3.4c0-0.3,0.2-0.5,0.5-0.5s0.5,0.2,0.5,0.5v8.8
			c0,0.3-0.2,0.5-0.5,0.5s-0.5-0.2-0.5-0.5v-4.4H1v4.4c0,0.3-0.2,0.5-0.5,0.5S0,67.6,0,67.3z"/>
		<path class="st0" d="M5.4,67.9c-0.4,0-0.6-0.2-0.6-0.6V63H1.1v4.3c0,0.4-0.2,0.6-0.6,0.6s-0.6-0.2-0.6-0.6v-8.8
			c0-0.4,0.2-0.6,0.6-0.6s0.6,0.2,0.6,0.6v3.3h3.7v-3.3c0-0.4,0.2-0.6,0.6-0.6S6,58.1,6,58.4v8.8C6,67.7,5.8,67.9,5.4,67.9z
			 M0.9,62.8H5v4.5c0,0.3,0.1,0.4,0.4,0.4s0.4-0.1,0.4-0.4v-8.8c0-0.3-0.1-0.4-0.4-0.4S5,58.2,5,58.4V62H0.9v-3.6
			c0-0.3-0.1-0.4-0.4-0.4s-0.4,0.1-0.4,0.4v8.8c0,0.3,0.1,0.4,0.4,0.4s0.4-0.1,0.4-0.4V62.8z"/>
	</g>
	<g>
		<path class="st0" d="M17.6,65.3v-2c0-0.7,0.2-1.3,0.7-1.7s1.1-0.7,1.7-0.7c0.7,0,1.3,0.2,1.7,0.7c0.5,0.5,0.7,1.1,0.7,1.7v2
			c0,0.7-0.2,1.3-0.7,1.7c-0.5,0.5-1.1,0.7-1.7,0.7c-0.7,0-1.3-0.2-1.7-0.7C17.8,66.6,17.6,66,17.6,65.3z M21.5,65.3v-2
			c0-0.4-0.1-0.8-0.4-1c-0.3-0.3-0.6-0.4-1-0.4s-0.8,0.1-1,0.4c-0.3,0.3-0.4,0.6-0.4,1v2c0,0.4,0.1,0.8,0.4,1c0.3,0.3,0.6,0.4,1,0.4
			c0.4,0,0.8-0.1,1-0.4C21.3,66.1,21.5,65.7,21.5,65.3z"/>
		<path class="st0" d="M20,67.9c-0.7,0-1.3-0.3-1.8-0.8c-0.5-0.5-0.8-1.1-0.8-1.8v-2c0-0.7,0.3-1.3,0.8-1.8c0.5-0.5,1.1-0.8,1.8-0.8
			c0.7,0,1.3,0.3,1.8,0.7c0.5,0.5,0.7,1.1,0.7,1.8v2c0,0.7-0.3,1.3-0.8,1.8C21.3,67.6,20.7,67.9,20,67.9z M20,61
			c-0.6,0-1.2,0.2-1.7,0.7c-0.5,0.5-0.7,1-0.7,1.7v2c0,0.6,0.2,1.2,0.7,1.7c0.5,0.5,1,0.7,1.7,0.7c0.6,0,1.2-0.2,1.7-0.7
			c0.5-0.5,0.7-1,0.7-1.7v-2c0-0.7-0.2-1.2-0.7-1.7C21.2,61.2,20.7,61,20,61z M20,66.9c-0.4,0-0.8-0.2-1.1-0.5
			c-0.3-0.3-0.5-0.7-0.5-1.1v-2c0-0.4,0.2-0.8,0.5-1.1c0.3-0.3,0.7-0.5,1.1-0.5c0.4,0,0.8,0.2,1.1,0.5c0.3,0.3,0.5,0.7,0.5,1.1v2
			c0,0.4-0.2,0.8-0.5,1.1C20.8,66.8,20.5,66.9,20,66.9z M20,62c-0.4,0-0.7,0.1-1,0.4c-0.3,0.3-0.4,0.6-0.4,1v2c0,0.4,0.1,0.7,0.4,1
			c0.3,0.3,0.6,0.4,1,0.4c0.4,0,0.7-0.1,1-0.4c0.3-0.3,0.4-0.6,0.4-1v-2c0-0.4-0.1-0.7-0.4-1C20.7,62.1,20.4,62,20,62z"/>
	</g>
	<g>
		<path class="st0" d="M34.1,60.9h4.4c0.6,0,1,0.2,1.4,0.6c0.4,0.4,0.6,0.8,0.6,1.4v4.4c0,0.3-0.2,0.5-0.5,0.5
			c-0.3,0-0.5-0.2-0.5-0.5v-4.4c0-0.3-0.1-0.5-0.3-0.7s-0.4-0.3-0.7-0.3h-1v5.4c0,0.3-0.2,0.5-0.5,0.5c-0.3,0-0.5-0.2-0.5-0.5v-5.4
			h-2v5.4c0,0.3-0.2,0.5-0.5,0.5s-0.5-0.2-0.5-0.5v-5.9C33.6,61.1,33.8,60.9,34.1,60.9z"/>
		<path class="st0" d="M40,67.9c-0.4,0-0.6-0.2-0.6-0.6v-4.4c0-0.2-0.1-0.5-0.2-0.6C39,62.1,38.8,62,38.5,62h-0.9v5.3
			c0,0.4-0.2,0.6-0.6,0.6c-0.4,0-0.6-0.2-0.6-0.6V62h-1.7v5.3c0,0.4-0.2,0.6-0.6,0.6c-0.4,0-0.6-0.2-0.6-0.6v-5.9
			c0-0.4,0.2-0.6,0.6-0.6h4.4c0.6,0,1.1,0.2,1.5,0.6c0.4,0.4,0.6,0.9,0.6,1.5v4.4C40.6,67.7,40.4,67.9,40,67.9z M37.4,61.8h1.1
			c0.3,0,0.6,0.1,0.8,0.3c0.2,0.2,0.3,0.5,0.3,0.8v4.4c0,0.3,0.1,0.4,0.4,0.4s0.4-0.1,0.4-0.4v-4.4c0-0.5-0.2-1-0.5-1.3
			c-0.4-0.4-0.8-0.5-1.3-0.5h-4.4c-0.3,0-0.4,0.1-0.4,0.4v5.9c0,0.3,0.1,0.4,0.4,0.4s0.4-0.1,0.4-0.4v-5.5h2.2v5.5
			c0,0.3,0.1,0.4,0.4,0.4c0.3,0,0.4-0.1,0.4-0.4V61.8z"/>
	</g>
	<g>
		<path class="st0" d="M52.6,64.8v1c0,0.3,0.1,0.5,0.3,0.7c0.2,0.2,0.4,0.3,0.7,0.3h2.5c0.3,0,0.5,0.2,0.5,0.5s-0.2,0.5-0.5,0.5
			h-2.5c-0.6,0-1-0.2-1.4-0.6c-0.4-0.4-0.6-0.8-0.6-1.4v-2.5c0-0.7,0.2-1.3,0.7-1.7c0.5-0.5,1.1-0.7,1.7-0.7c0.7,0,1.3,0.2,1.7,0.7
			s0.7,1.1,0.7,1.7v1.5H52.6z M54.1,61.9c-0.4,0-0.8,0.1-1,0.4c-0.3,0.3-0.4,0.6-0.4,1v0.5h2.9v-0.5c0-0.4-0.1-0.8-0.4-1
			C54.9,62,54.5,61.9,54.1,61.9z"/>
		<path class="st0" d="M56.1,67.9h-2.5c-0.6,0-1.1-0.2-1.5-0.6c-0.4-0.4-0.6-0.9-0.6-1.5v-2.5c0-0.7,0.3-1.3,0.8-1.8
			c0.5-0.5,1.1-0.8,1.8-0.8c0.7,0,1.3,0.3,1.8,0.7c0.5,0.5,0.7,1.1,0.7,1.8v1.6h-3.9v0.9c0,0.2,0.1,0.4,0.3,0.6
			c0.2,0.2,0.4,0.3,0.6,0.3h2.5c0.4,0,0.6,0.2,0.6,0.6S56.5,67.9,56.1,67.9z M54.1,61c-0.6,0-1.2,0.2-1.7,0.7
			c-0.5,0.5-0.7,1-0.7,1.7v2.5c0,0.5,0.2,1,0.5,1.3c0.4,0.4,0.8,0.5,1.3,0.5h2.5c0.3,0,0.4-0.1,0.4-0.4s-0.1-0.4-0.4-0.4h-2.5
			c-0.3,0-0.6-0.1-0.8-0.3c-0.2-0.2-0.3-0.5-0.3-0.8v-1.1h3.9v-1.4c0-0.7-0.2-1.2-0.7-1.7C55.3,61.2,54.8,61,54.1,61z M55.7,64h-3.2
			v-0.6c0-0.4,0.2-0.8,0.5-1.1c0.3-0.3,0.7-0.5,1.1-0.5s0.8,0.2,1.1,0.5c0.3,0.3,0.5,0.7,0.5,1.1V64z M52.8,63.7h2.7v-0.4
			c0-0.4-0.1-0.7-0.4-1c-0.3-0.3-0.6-0.4-1-0.4c-0.4,0-0.7,0.1-1,0.4c-0.3,0.3-0.4,0.6-0.4,1V63.7z"/>
	</g>
	<g>
		<path class="st0" d="M69.8,69.7l0.8-2.5l-1.9-5.7c0-0.1,0-0.1,0-0.2c0-0.3,0.2-0.5,0.5-0.5c0.2,0,0.4,0.1,0.5,0.3l1.5,4.5l1.5-4.5
			c0.1-0.2,0.2-0.3,0.5-0.3c0.3,0,0.5,0.2,0.5,0.5c0,0,0,0.1,0,0.2l-2.9,8.8c-0.1,0.2-0.2,0.3-0.5,0.3h-1c-0.3,0-0.5-0.2-0.5-0.5
			c0-0.3,0.1-0.4,0.4-0.5C69.2,69.8,69.4,69.7,69.8,69.7z"/>
		<path class="st0" d="M70.2,70.8h-1c-0.4,0-0.6-0.2-0.6-0.6c0-0.3,0.2-0.5,0.5-0.6c0,0,0.1,0,0.7,0l0.8-2.3l-1.9-5.7
			c0-0.1,0-0.1,0-0.2c0-0.4,0.2-0.6,0.6-0.6c0.3,0,0.5,0.1,0.6,0.4l1.4,4.2l1.4-4.2c0.1-0.3,0.3-0.4,0.6-0.4c0.4,0,0.6,0.2,0.6,0.6
			c0,0.1,0,0.1,0,0.2l-2.9,8.8C70.7,70.7,70.5,70.8,70.2,70.8z M69.8,69.9c-0.6,0-0.7,0-0.7,0c-0.2,0-0.3,0.2-0.3,0.4
			c0,0.3,0.1,0.4,0.4,0.4h1c0.2,0,0.3-0.1,0.4-0.3l2.9-8.8c0,0,0-0.1,0-0.1c0-0.3-0.1-0.4-0.4-0.4c-0.2,0-0.3,0.1-0.4,0.3l-1.6,4.8
			l-1.6-4.8c-0.1-0.2-0.2-0.3-0.4-0.3c-0.3,0-0.4,0.1-0.4,0.4c0,0,0,0.1,0,0.1l1.9,5.8L69.8,69.9L69.8,69.9z"/>
	</g>
	<g>
		<path class="st0" d="M86.7,64.8v1c0,0.3,0.1,0.5,0.3,0.7c0.2,0.2,0.4,0.3,0.7,0.3h2.5c0.3,0,0.5,0.2,0.5,0.5s-0.2,0.5-0.5,0.5
			h-2.5c-0.6,0-1-0.2-1.4-0.6c-0.4-0.4-0.6-0.8-0.6-1.4v-2.5c0-0.7,0.2-1.3,0.7-1.7s1.1-0.7,1.7-0.7c0.7,0,1.3,0.2,1.7,0.7
			c0.5,0.5,0.7,1.1,0.7,1.7v1.5H86.7z M88.2,61.9c-0.4,0-0.8,0.1-1,0.4c-0.3,0.3-0.4,0.6-0.4,1v0.5h2.9v-0.5c0-0.4-0.1-0.8-0.4-1
			C89,62,88.6,61.9,88.2,61.9z"/>
		<path class="st0" d="M90.2,67.9h-2.5c-0.6,0-1.1-0.2-1.5-0.6c-0.4-0.4-0.6-0.9-0.6-1.5v-2.5c0-0.7,0.3-1.3,0.8-1.8
			c0.5-0.5,1.1-0.8,1.8-0.8c0.7,0,1.3,0.3,1.8,0.7c0.5,0.5,0.7,1.1,0.7,1.8v1.6h-3.9v0.9c0,0.2,0.1,0.4,0.3,0.6
			c0.2,0.2,0.4,0.3,0.6,0.3h2.5c0.4,0,0.6,0.2,0.6,0.6S90.6,67.9,90.2,67.9z M88.2,61c-0.6,0-1.2,0.2-1.7,0.7
			c-0.5,0.5-0.7,1-0.7,1.7v2.5c0,0.5,0.2,1,0.5,1.3c0.4,0.4,0.8,0.5,1.3,0.5h2.5c0.3,0,0.4-0.1,0.4-0.4s-0.1-0.4-0.4-0.4h-2.5
			c-0.3,0-0.6-0.1-0.8-0.3c-0.2-0.2-0.3-0.5-0.3-0.8v-1.1h3.9v-1.4c0-0.7-0.2-1.2-0.7-1.7C89.4,61.2,88.9,61,88.2,61z M89.8,64h-3.2
			v-0.6c0-0.4,0.2-0.8,0.5-1.1c0.3-0.3,0.7-0.5,1.1-0.5s0.8,0.2,1.1,0.5c0.3,0.3,0.5,0.7,0.5,1.1V64z M86.8,63.7h2.7v-0.4
			c0-0.4-0.1-0.7-0.4-1c-0.3-0.3-0.6-0.4-1-0.4s-0.7,0.1-1,0.4c-0.3,0.3-0.4,0.6-0.4,1V63.7z"/>
	</g>
	<g>
		<path class="st0" d="M108.2,58.4v6.4c0,0.8-0.3,1.5-0.9,2.1c-0.6,0.6-1.3,0.9-2.1,0.9c-0.8,0-1.5-0.3-2.1-0.9
			c-0.6-0.6-0.9-1.3-0.9-2.1v-6.4c0-0.3,0.2-0.5,0.5-0.5c0.3,0,0.5,0.2,0.5,0.5v6.4c0,0.6,0.2,1,0.6,1.4c0.4,0.4,0.8,0.6,1.4,0.6
			s1-0.2,1.4-0.6c0.4-0.4,0.6-0.8,0.6-1.4v-6.4c0-0.3,0.2-0.5,0.5-0.5C108,58,108.2,58.1,108.2,58.4z"/>
		<path class="st0" d="M105.3,67.9c-0.8,0-1.6-0.3-2.2-0.9c-0.6-0.6-0.9-1.3-0.9-2.2v-6.4c0-0.4,0.2-0.6,0.6-0.6
			c0.4,0,0.6,0.2,0.6,0.6v6.4c0,0.5,0.2,1,0.5,1.3c0.4,0.4,0.8,0.5,1.3,0.5s1-0.2,1.3-0.5c0.4-0.4,0.5-0.8,0.5-1.3v-6.4
			c0-0.4,0.2-0.6,0.6-0.6c0.4,0,0.6,0.2,0.6,0.6v6.4c0,0.8-0.3,1.6-0.9,2.2C106.8,67.6,106.1,67.9,105.3,67.9z M102.8,58.1
			c-0.3,0-0.4,0.1-0.4,0.4v6.4c0,0.8,0.3,1.5,0.8,2c0.6,0.6,1.2,0.8,2,0.8s1.5-0.3,2-0.8c0.6-0.6,0.8-1.2,0.8-2v-6.4
			c0-0.3-0.1-0.4-0.4-0.4c-0.3,0-0.4,0.1-0.4,0.4v6.4c0,0.6-0.2,1.1-0.6,1.5c-0.4,0.4-0.9,0.6-1.5,0.6s-1.1-0.2-1.5-0.6
			c-0.4-0.4-0.6-0.9-0.6-1.5v-6.4C103.2,58.2,103.1,58.1,102.8,58.1z"/>
	</g>
	<g>
		<path class="st0" d="M119.8,61.4c0-0.3,0.2-0.5,0.5-0.5h2.5c0.6,0,1,0.2,1.4,0.6c0.4,0.4,0.6,0.8,0.6,1.4v2.9c0,0.5-0.2,1-0.6,1.4
			c-0.4,0.4-0.8,0.6-1.4,0.6h-2v2.5c0,0.3-0.2,0.5-0.5,0.5c-0.3,0-0.5-0.2-0.5-0.5V61.4z M120.8,61.9v4.9h2c0.3,0,0.5-0.1,0.7-0.3
			s0.3-0.4,0.3-0.7v-2.9c0-0.3-0.1-0.5-0.3-0.7s-0.4-0.3-0.7-0.3H120.8z"/>
		<path class="st0" d="M120.3,70.8c-0.4,0-0.6-0.2-0.6-0.6v-8.8c0-0.4,0.2-0.6,0.6-0.6h2.5c0.6,0,1.1,0.2,1.5,0.6
			c0.4,0.4,0.6,0.9,0.6,1.5v2.9c0,0.6-0.2,1.1-0.6,1.5c-0.4,0.4-0.9,0.6-1.5,0.6h-1.9v2.3C120.9,70.6,120.7,70.8,120.3,70.8z
			 M120.3,61c-0.3,0-0.4,0.1-0.4,0.4v8.8c0,0.3,0.1,0.4,0.4,0.4c0.3,0,0.4-0.1,0.4-0.4v-2.6h2.1c0.5,0,1-0.2,1.3-0.5
			c0.4-0.4,0.5-0.8,0.5-1.3v-2.9c0-0.5-0.2-1-0.5-1.3c-0.4-0.4-0.8-0.5-1.3-0.5H120.3z M122.8,66.9h-2.1v-5.1h2.1
			c0.3,0,0.6,0.1,0.8,0.3c0.2,0.2,0.3,0.5,0.3,0.8v2.9c0,0.3-0.1,0.6-0.3,0.8C123.4,66.8,123.1,66.9,122.8,66.9z M120.9,66.7h1.9
			c0.2,0,0.4-0.1,0.6-0.3s0.3-0.4,0.3-0.6v-2.9c0-0.2-0.1-0.5-0.2-0.6c-0.2-0.2-0.4-0.2-0.6-0.2h-1.9V66.7z"/>
	</g>
	<path class="st1" d="M69.7,31.3c-0.3,0-0.7-0.1-0.9-0.4L65,27.3H51.4c-2.6,0-4.8-2.1-4.8-4.8v-8.3c0-2.6,2.1-4.8,4.8-4.8H72
		c2.6,0,4.8,2.1,4.8,4.8v8.3c0,2.6-2.1,4.8-4.8,4.8h-1V30c0,0.5-0.3,1-0.8,1.2C70,31.3,69.8,31.3,69.7,31.3z M51.4,12.1
		c-1.2,0-2.1,1-2.1,2.1v8.3c0,1.2,1,2.1,2.1,2.1h14.2c0.3,0,0.7,0.1,0.9,0.4l1.9,1.8V26c0-0.7,0.6-1.3,1.3-1.3H72
		c1.2,0,2.1-1,2.1-2.1v-8.3c0-1.2-1-2.1-2.1-2.1H51.4z"/>
</g>
</svg>
