<?xml version="1.0" encoding="utf-8"?>
<!-- Generator: Adobe Illustrator 21.0.0, SVG Export Plug-In . SVG Version: 6.00 Build 0)  -->
<svg version="1.1" id="图层_1" xmlns="http://www.w3.org/2000/svg" xmlns:xlink="http://www.w3.org/1999/xlink" x="0px" y="0px"
	 viewBox="0 0 180 147" style="enable-background:new 0 0 180 147;" xml:space="preserve">
<style type="text/css">
	.st0{fill:#CDD4E6;}
</style>
<path class="st0" d="M179,126.5c-4-4.2-9.6-1.1-13.9,0.6c-2.3,0.9-3.7,0.6-5.8-0.7c-2.3-1.4-4.4-3-7.2-3.3c-2.9-0.3-5.5,0.9-7.9,2.4
	c-3.1,2-6.5,2.7-10,1.2c-2.7-1.1-5-3.1-7.9-3.7c-3.2-0.7-6.2,0.8-8.8,2.6c-2.6,1.8-4.4,2-7.3,0.5c-3-1.5-6.2-3-9.7-2.2
	c-3.2,0.7-5.9,2.7-9,3.5c-3.4,0.9-6.7-1.7-9.6-3.1c-2.7-1.3-5.8-1.6-8.6-0.5c-2.8,1.1-5,3.7-8,3.9c-3.7,0.3-6.7-2.1-10-3.2
	c-3.4-1.2-6.6-0.5-9.7,1.2c-1.7,0.9-3.5,2.4-5.6,2.2c-2.1-0.3-3.5-2.1-5.4-2.9c-5.2-2.3-8.8,1.5-13.3,3.1c-3.1,1.1-7.1-2.7-9.9-3.7
	c-4.1-1.5-7.9-0.3-10.7,3.1c-2.5,3.1,1.9,6,4.4,2.9c1.5-1.9,2.6-2.4,4.9-1.4c2.4,1.1,4.5,2.6,7,3.5c2.7,1,5.4,0.3,8-0.8
	c2.5-1.1,5.1-3.9,7.8-2.1c2.6,1.6,4.7,2.9,7.8,3c3.2,0.1,5.9-2,8.6-3.4c3.1-1.6,6,0.9,8.8,2c3.5,1.4,7.5,1.9,11.1,0.5
	c2.4-0.9,4.3-3,6.8-3.7c2.8-0.8,6.7,2.6,9.2,3.5c3,1.1,6.3,1.1,9.3,0.1c3.3-1.1,6.2-3.8,9.9-2.8c2.9,0.8,5.2,3,8.4,3.2
	c3.2,0.2,5.7-1,8.3-2.9c1.1-0.8,2.2-1.5,3.6-1.6c1.2-0.1,2.5,1,3.5,1.6c3.2,1.9,6.4,3,10.2,3.1c2.3,0,4.4-0.5,6.5-1.4
	c1.7-0.7,3.1-2.1,4.9-2.7c2.9-1.1,5.6,1.9,8,3.1c3.2,1.7,6.3,1.4,9.6,0.2c1.6-0.6,3.1-1.3,4.7-1.8c0.6-0.2,1.2-0.4,1.9-0.4
	c0.8-0.1,0.4-0.1,0.8,0.3C177.3,132.3,181.7,129.4,179,126.5L179,126.5z M155,141.9c-2,0.7-3.1,0.5-4.9-0.5c-2-1.2-3.7-2.5-6.1-2.7
	c-2.4-0.3-4.7,0.7-6.7,2c-2.6,1.6-5.4,2.2-8.4,1c-2.3-0.9-4.2-2.6-6.7-3.1c-2.7-0.5-5.2,0.7-7.4,2.2c-2.2,1.5-3.7,1.7-6.1,0.4
	c-2.6-1.3-5.2-2.5-8.2-1.8c-2.7,0.6-4.9,2.2-7.6,2.9c-2.9,0.7-5.6-1.4-8.1-2.6c-2.3-1.1-4.9-1.4-7.3-0.4c-2.3,0.9-4.2,3-6.8,3.2
	c-3.1,0.3-5.7-1.7-8.4-2.7c-2.9-1-5.5-0.4-8.2,1c-1.5,0.8-2.9,2-4.7,1.8c-1.7-0.2-3-1.7-4.5-2.4c-4.4-1.9-7.4,1.2-11.2,2.6
	c-2.6,0.9-5.9-2.2-8.3-3.1c-3.5-1.3-6.7-0.2-9,2.6c-2.1,2.6,1.6,5.2,3.7,2.6c1.3-1.6,2.2-2,4.1-1.1c2,0.9,3.8,2.1,5.9,2.9
	c2.3,0.8,4.6,0.3,6.7-0.6c2.1-0.9,4.3-3.2,6.6-1.7c2.2,1.4,3.9,2.4,6.6,2.5c2.7,0.1,5-1.6,7.3-2.8c2.6-1.3,5.1,0.7,7.4,1.6
	c3,1.1,6.3,1.6,9.4,0.4c2-0.8,3.6-2.4,5.7-3.1c2.4-0.7,5.6,2.1,7.7,2.9c2.5,0.9,5.3,0.9,7.8,0.1c2.8-0.9,5.2-3.1,8.3-2.3
	c2.5,0.7,4.4,2.5,7.1,2.7c2.7,0.2,4.8-0.9,7-2.4c0.9-0.6,1.9-1.2,3-1.3c1,0,2.1,0.8,3,1.3c2.7,1.6,5.4,2.5,8.5,2.6
	c1.9,0,3.7-0.4,5.4-1.2c1.4-0.6,2.6-1.7,4.1-2.3c2.5-0.9,4.7,1.5,6.7,2.6c2.7,1.4,5.3,1.2,8.1,0.2c1.3-0.5,2.6-1.1,3.9-1.5
	c0.5-0.2,1-0.3,1.6-0.4c0.7,0,0.3-0.1,0.7,0.3c2.3,2.4,6-0.2,3.7-2.6C163.4,138,158.7,140.6,155,141.9L155,141.9z M73.5,82.6
	l3.8-3.8c1-1,1-2.5,0-3.5c-1-1-2.5-1-3.5,0L70,79.1l-3.8-3.8c-1-1-2.5-1-3.5,0c-1,1-1,2.5,0,3.5l3.8,3.8l-3.8,3.8
	c-0.9,1-0.9,2.5,0.1,3.5c0.9,0.9,2.5,1,3.5,0.1l3.8-3.8l3.8,3.8c0.5,0.5,1.1,0.7,1.8,0.7c1,0,1.9-0.6,2.3-1.5c0.4-0.9,0.2-2-0.5-2.7
	L73.5,82.6z M119.3,82.6l3.8-3.8c1-1,1-2.5,0-3.5c-1-1-2.5-1-3.5,0l-3.8,3.8l-3.8-3.8c-1-0.9-2.5-0.9-3.5,0.1
	c-0.9,0.9-1,2.5-0.1,3.5l3.8,3.8l-3.8,3.8c-0.7,0.7-0.9,1.8-0.5,2.7c0.4,0.9,1.3,1.5,2.3,1.5c0.6,0,1.3-0.2,1.8-0.7l3.8-3.8l3.8,3.8
	c0.5,0.5,1.1,0.7,1.8,0.7c1,0,1.9-0.6,2.3-1.5c0.4-0.9,0.2-2-0.5-2.7L119.3,82.6z M119.3,82.6"/>
<path class="st0" d="M168.9,21.2L148.6,0.9c-0.1-0.1-0.2-0.1-0.2-0.2c0,0-0.1,0-0.1-0.1c0,0-0.1-0.1-0.1-0.1c0,0-0.1-0.1-0.1-0.1
	c0,0-0.1-0.1-0.1-0.1c0,0-0.1,0-0.1-0.1c0,0-0.1,0-0.1-0.1c0,0-0.1,0-0.1,0c-0.1,0-0.1,0-0.2-0.1c0,0-0.1,0-0.1,0
	c-0.1,0-0.1,0-0.2,0c-0.1,0-0.1,0-0.2,0c0,0-0.1,0-0.1,0c-0.1,0-0.2,0-0.3,0h0c-0.1,0-0.2,0-0.3,0c0,0-0.1,0-0.1,0
	c-0.1,0-0.1,0-0.2,0c-0.1,0-0.1,0-0.2,0c0,0-0.1,0-0.1,0c0,0-0.1,0-0.1,0.1c0,0-0.1,0-0.1,0.1c0,0-0.1,0-0.1,0.1c0,0-0.1,0-0.1,0.1
	c0,0-0.1,0-0.1,0.1c0,0-0.1,0.1-0.1,0.1c0,0-0.1,0.1-0.1,0.1c0,0-0.1,0.1-0.1,0.1c-0.1,0.1-0.1,0.1-0.2,0.2l0,0l0,0
	C144.1,1,144,1.1,144,1.2c0,0-0.1,0.1-0.1,0.1c0,0-0.1,0.1-0.1,0.1c0,0-0.1,0.1-0.1,0.2c0,0,0,0.1-0.1,0.1c0,0.1-0.1,0.1-0.1,0.2
	l-0.1,0.1c0,0.1,0,0.1-0.1,0.2c0,0,0,0.1,0,0.1c0,0.1,0,0.1,0,0.2c0,0,0,0.1,0,0.1c0,0.1,0,0.1,0,0.2c0,0,0,0.1,0,0.1
	c0,0.1,0,0.2,0,0.3v48.6c-2.7-5.1-6.1-9.8-10.2-13.9c-10.6-10.6-24.7-16.5-39.7-16.5c-15,0-29.1,5.8-39.7,16.5
	C43,48.5,37.2,62.6,37.2,77.6c0,9.5,2.4,18.8,6.9,27.1c0.7,1.3,1.5,2.6,2.3,3.8c0.9,1.4,2.9,1.8,4.3,0.9c1.4-0.9,1.8-2.9,0.9-4.3
	c-0.7-1.1-1.4-2.2-2-3.4c-4-7.3-6.2-15.7-6.2-24.1c0-27.6,22.4-50,50-50c26.6,0,48.4,20.9,49.9,47.1v5.8c-0.4,7.3-2.5,14.5-5.9,20.9
	c-0.7,1.2-1.4,2.4-2.2,3.6c-0.6,0.9-0.7,2.1-0.2,3.1c0.5,1,1.5,1.6,2.6,1.7c1.1,0.1,2.2-0.5,2.8-1.4c0.9-1.3,1.7-2.7,2.4-4.1
	c3.8-7,6.1-14.8,6.6-22.7c0-0.2,0.1-0.4,0.1-0.6v-0.4c0.1-1,0.1-2,0.1-3.1c0-1,0-2.1-0.1-3.1V10.6l15,15c0.6,0.6,1.4,0.9,2.2,0.9
	c0.8,0,1.6-0.3,2.2-0.9c0.6-0.6,0.9-1.4,0.9-2.2C169.8,22.6,169.5,21.8,168.9,21.2L168.9,21.2z M14.9,37c0.4-0.1,3.6-1,4.8,1.7
	c0,0.4,0.1,0.7,0.2,1.1c0.2,0.7,1,1.2,1.8,1c0.4-0.1,0.7-0.3,0.8-0.7c0.2-0.3,0.2-0.7,0.1-1.1c-0.9-3,2.3-4.3,2.7-4.4
	c0.3-0.1,0.6-0.4,0.8-0.7c0.2-0.3,0.2-0.7,0-1.1c-0.3-0.7-1.1-1.1-1.8-0.8c-1.2,0.4-2.9,1.5-3.9,3.2c-2.1-1.5-4.8-1.3-6.4-0.9
	c-0.4,0.1-0.6,0.4-0.8,0.7c-0.2,0.3-0.2,0.7-0.1,1.1C13.4,36.8,14.1,37.2,14.9,37L14.9,37z M36,22.5c0.5-0.1,4.7-1.3,6.3,2.3
	c0.1,0.5,0.2,1,0.3,1.5c0.3,1,1.3,1.6,2.3,1.3h0c1-0.3,1.6-1.3,1.3-2.3v0c-1.2-4,3-5.7,3.5-5.9c0.9-0.4,1.4-1.4,1-2.4
	c-0.3-0.9-1.4-1.4-2.3-1.1c-1.6,0.6-3.8,2-5.1,4.2c-2.7-2.1-6.4-1.8-8.4-1.1c-1,0.3-1.5,1.4-1.2,2.3C33.9,22.3,35,22.8,36,22.5
	L36,22.5z M36,22.5"/>
</svg>
