<?xml version="1.0" encoding="utf-8"?>
<!-- Generator: Adobe Illustrator 21.0.0, SVG Export Plug-In . SVG Version: 6.00 Build 0)  -->
<svg version="1.1" id="图层_1" xmlns="http://www.w3.org/2000/svg" xmlns:xlink="http://www.w3.org/1999/xlink" x="0px" y="0px"
	 viewBox="0 0 33 32" style="enable-background:new 0 0 33 32;" xml:space="preserve">
<style type="text/css">
	.st0{fill:#A3A8B2;}
</style>
<g>
	<path class="st0" d="M19.3,25.7c-0.7,0-1.2-0.5-1.2-1.2V11.6c0-0.7,0.5-1.2,1.2-1.2c0.7,0,1.2,0.5,1.2,1.2v12.9
		C20.5,25.2,19.9,25.7,19.3,25.7L19.3,25.7z M12.2,25.7c-0.7,0-1.2-0.5-1.2-1.2V11.6c0-0.7,0.5-1.2,1.2-1.2c0.7,0,1.2,0.5,1.2,1.2
		v12.9C13.4,25.2,12.9,25.7,12.2,25.7L12.2,25.7z M31.1,5.7h-5.9V3.3c0-1.9-1.6-3.5-3.5-3.5H9.9c-1.9,0-3.5,1.6-3.5,3.5v2.4H0.4
		c-0.7,0-1.2,0.5-1.2,1.2C-0.7,7.5-0.2,8,0.4,8h30.6c0.7,0,1.2-0.5,1.2-1.2C32.3,6.2,31.7,5.7,31.1,5.7L31.1,5.7z M8.7,3.3
		c0-0.6,0.5-1.2,1.2-1.2h11.8c0.6,0,1.2,0.5,1.2,1.2v2.4H8.7V3.3z M24,32.8H7.5c-1.9,0-3.5-1.6-3.5-3.5V11.6c0-0.6,0.5-1.2,1.2-1.2
		c0.7,0,1.2,0.5,1.2,1.2v17.7c0,0.6,0.5,1.2,1.2,1.2H24c0.7,0,1.2-0.5,1.2-1.2V11.6c0-0.6,0.5-1.2,1.2-1.2c0.7,0,1.2,0.5,1.2,1.2
		v17.6C27.5,31.2,26,32.8,24,32.8L24,32.8z M24,32.8"/>
</g>
</svg>
