<?xml version="1.0" encoding="utf-8"?>
<!-- Generator: Adobe Illustrator 21.0.0, SVG Export Plug-In . SVG Version: 6.00 Build 0)  -->
<svg version="1.1" id="图层_1" xmlns="http://www.w3.org/2000/svg" xmlns:xlink="http://www.w3.org/1999/xlink" x="0px" y="0px"
	 viewBox="0 0 30 30" style="enable-background:new 0 0 30 30;" xml:space="preserve">
<style type="text/css">
	.st0{fill:#A3A8B2;}
</style>
<g>
	<g>
		<path class="st0" d="M18.1,15L29.4,3.7c0.8-0.8,0.8-2.2,0-3.1c-0.8-0.8-2.2-0.8-3.1,0L15,11.9L3.7,0.6c-0.8-0.8-2.2-0.8-3.1,0
			c-0.8,0.8-0.8,2.2,0,3.1L11.9,15L0.6,26.3c-0.8,0.8-0.8,2.2,0,3.1c0.8,0.8,2.2,0.8,3.1,0L15,18.1l11.3,11.3c0.8,0.8,2.2,0.8,3.1,0
			c0.8-0.8,0.8-2.2,0-3.1L18.1,15z M18.1,15"/>
	</g>
</g>
</svg>
