<?xml version="1.0" encoding="utf-8"?>
<!-- Generator: Adobe Illustrator 21.0.0, SVG Export Plug-In . SVG Version: 6.00 Build 0)  -->
<svg version="1.1" id="图层_1" xmlns="http://www.w3.org/2000/svg" xmlns:xlink="http://www.w3.org/1999/xlink" x="0px" y="0px"
	 viewBox="0 0 68 68" style="enable-background:new 0 0 68 68;" xml:space="preserve">
<style type="text/css">
	.st0{fill:#F24949;}
</style>
<g>
	<path class="st0" d="M34,0C15.2,0,0,15.2,0,34c0,18.8,15.2,34,34,34c18.8,0,34-15.2,34-34C68,15.2,52.8,0,34,0L34,0z M48.4,48.3
		C48.4,48.3,48.4,48.3,48.4,48.3c-0.9,0.9-2.5,0.9-3.4,0L34,37.4L23.1,48.4c0,0,0,0,0,0c-0.9,0.9-2.5,0.9-3.4,0
		c-0.9-0.9-0.9-2.5,0-3.4L30.6,34L19.6,23.1c-0.9-0.9-0.9-2.5,0-3.4c0,0,0,0,0,0c0.9-0.9,2.5-0.9,3.4,0L34,30.6l10.9-10.9
		c0,0,0,0,0,0c0.9-0.9,2.5-0.9,3.4,0c0.9,0.9,0.9,2.5,0,3.4L37.4,34l10.9,10.9C49.3,45.9,49.3,47.4,48.4,48.3L48.4,48.3z M48.4,48.3
		"/>
</g>
</svg>
