<?xml version="1.0" encoding="utf-8"?>
<!-- Generator: Adobe Illustrator 21.0.0, SVG Export Plug-In . SVG Version: 6.00 Build 0)  -->
<svg version="1.1" id="图层_1" xmlns="http://www.w3.org/2000/svg" xmlns:xlink="http://www.w3.org/1999/xlink" x="0px" y="0px"
	 viewBox="0 0 22 18" style="enable-background:new 0 0 22 18;" xml:space="preserve">
<style type="text/css">
	.st0{fill:#FF4948;}
</style>
<path class="st0" d="M4.9,7.7c0,0.2-0.2,0.3-0.4,0.2c-0.2,0-0.3-0.2-0.2-0.4c0.2-0.9,0.5-1.7,1-2.5c0.5-0.7,1.2-1.4,1.9-1.9
	c0.1-0.1,0.3,0,0.4,0.1c0.1,0.1,0.1,0.3-0.1,0.4C6.9,4.1,6.3,4.7,5.8,5.4C5.4,6.1,5,6.9,4.9,7.7L4.9,7.7z M11.2,0
	c2.5,0,4.7,1,6.3,2.6l0.1,0.1c1.1,0.1,2.1,0.3,2.8,0.6c0.8,0.4,1.3,0.9,1.5,1.5c0.2,0.9-0.2,1.9-1.1,2.9c-0.2,0.2-0.4,0.4-0.7,0.7
	c0,0.1,0,0.3,0,0.5c0,2.5-1,4.7-2.6,6.3C15.9,17,13.7,18,11.2,18c-2.5,0-4.7-1-6.4-2.6c-0.6-0.6-1.1-1.3-1.5-2c-1.7-0.3-3-1-3.3-2
	c-0.2-0.6,0-1.3,0.4-2c0.4-0.6,1-1.3,1.9-2c0.3-1.8,1.2-3.4,2.5-4.7C6.5,1,8.7,0,11.2,0L11.2,0z M18.3,3.5c0.9,1.2,1.6,2.6,1.8,4.2
	c0.1-0.1,0.2-0.2,0.3-0.3c0.8-0.8,1.2-1.6,1-2.3c-0.1-0.4-0.5-0.8-1.1-1.1C19.7,3.8,19,3.6,18.3,3.5L18.3,3.5z M3,12.6
	C2.5,11.5,2.2,10.3,2.2,9c0-0.2,0-0.5,0-0.7C1.7,8.7,1.3,9.2,1,9.7c-0.3,0.5-0.4,1.1-0.3,1.5C0.9,11.9,1.7,12.4,3,12.6L3,12.6z
	 M19.5,9c-0.7,0.5-1.6,1.1-2.6,1.6v0c0,0.7-0.3,1.3-0.7,1.7c-0.4,0.5-1.1,0.7-1.7,0.7c-0.7,0-1.3-0.3-1.7-0.7l-0.1-0.1l-0.1,0
	c-0.1,0-0.2,0.1-0.3,0.1l-0.1,0c-3,0.9-5.8,1.2-7.9,1c0,0-0.1,0-0.1,0c0.3,0.5,0.7,1,1.2,1.5c1.5,1.5,3.6,2.4,5.9,2.4
	c2.3,0,4.4-0.9,5.9-2.4C18.6,13.4,19.5,11.3,19.5,9L19.5,9z M3.7,12.8c0.2,0,0.4,0,0.6,0.1c2.1,0.1,4.8-0.2,7.7-1l0,0
	c0.1,0,0.1,0,0.2,0C12.1,11.4,12,11,12,10.6c0-0.7,0.3-1.3,0.7-1.7c0.4-0.4,1.1-0.7,1.7-0.7c0.7,0,1.3,0.3,1.7,0.7
	c0.3,0.3,0.5,0.6,0.6,1c1.1-0.5,1.9-1.1,2.7-1.7c-0.2-2-1.1-3.8-2.4-5.1c-1.5-1.5-3.6-2.4-5.9-2.4c-2.3,0-4.4,0.9-5.9,2.4
	C3.8,4.6,2.8,6.7,2.8,9C2.8,10.3,3.2,11.6,3.7,12.8L3.7,12.8z M15.8,9.3C15.4,9,15,8.8,14.5,8.8c-0.5,0-1,0.2-1.3,0.5
	c-0.3,0.3-0.5,0.8-0.5,1.3c0,0.5,0.2,1,0.5,1.3c0.3,0.3,0.8,0.5,1.3,0.5c0.5,0,1-0.2,1.3-0.5c0.3-0.3,0.5-0.8,0.5-1.3
	C16.3,10.1,16.1,9.7,15.8,9.3L15.8,9.3z M8.7,3C8.6,3.1,8.4,3,8.3,2.8c-0.1-0.1,0-0.3,0.2-0.4c0.2,0,0.3-0.1,0.5-0.2l0.5-0.1
	c0.2,0,0.3,0.1,0.4,0.2c0,0.1-0.1,0.3-0.2,0.4c-0.1,0-0.3,0.1-0.5,0.1C9,2.9,8.9,3,8.7,3L8.7,3z M8.7,3"/>
</svg>
