<?xml version="1.0" encoding="utf-8"?>
<!-- Generator: Adobe Illustrator 21.0.0, SVG Export Plug-In . SVG Version: 6.00 Build 0)  -->
<svg version="1.1" id="图层_1" xmlns="http://www.w3.org/2000/svg" xmlns:xlink="http://www.w3.org/1999/xlink" x="0px" y="0px"
	 viewBox="0 0 19 20" style="enable-background:new 0 0 19 20;" xml:space="preserve">
<style type="text/css">
	.st0{fill:#FF4948;}
</style>
<g>
	<path class="st0" d="M11.3,15.8l-0.4-0.4c1.9-1.9,5.2-5.4,5.2-7.9c0-3.7-3-6.7-6.7-6.7c-3.7,0-6.7,3-6.7,6.7c0,2.5,3.3,6.1,5.2,7.9
		l-0.4,0.4c-2.5-2.4-5.4-5.7-5.4-8.3c0-4,3.3-7.2,7.2-7.2c4,0,7.3,3.3,7.3,7.2C16.6,10.1,13.7,13.4,11.3,15.8L11.3,15.8z M9.4,9.8
		C8,9.8,6.9,8.7,6.9,7.4C6.9,6,8,4.9,9.4,4.9c1.4,0,2.5,1.1,2.5,2.5C11.9,8.7,10.7,9.8,9.4,9.8L9.4,9.8z M9.4,5.5
		c-1,0-1.9,0.9-1.9,1.9c0,1,0.9,1.9,1.9,1.9c1,0,1.9-0.9,1.9-1.9C11.3,6.3,10.4,5.5,9.4,5.5L9.4,5.5z M9.4,5.5"/>
	<path class="st0" d="M9.4,9.8C8,9.8,6.9,8.7,6.9,7.4C6.9,6,8,4.9,9.4,4.9c1.4,0,2.5,1.1,2.5,2.5C11.9,8.7,10.7,9.8,9.4,9.8L9.4,9.8
		z M9.4,5.5c-1,0-1.9,0.9-1.9,1.9c0,1,0.9,1.9,1.9,1.9c1,0,1.9-0.9,1.9-1.9C11.3,6.3,10.4,5.5,9.4,5.5L9.4,5.5z M9.4,5.5"/>
	<path class="st0" d="M19,19.8H0l4.3-4.5h3.5l0.1,0.1c0.7,0.6,1.2,1.1,1.5,1.3c0.3-0.2,0.8-0.7,1.5-1.3l0.1-0.1h3.7L19,19.8z
		 M1.3,19.2h16.3l-3.2-3.3h-3.3c-0.9,0.9-1.6,1.4-1.6,1.4l-0.2,0.2l-0.2-0.2c0,0-0.7-0.6-1.6-1.4h-3L1.3,19.2z M1.3,19.2"/>
	<path class="st0" d="M9.4,17.5l-0.2-0.2c0,0-0.7-0.6-1.7-1.5l0.4-0.4c0.7,0.6,1.2,1.1,1.5,1.3c0.3-0.2,0.8-0.7,1.5-1.3l0.4,0.4
		c-1,0.9-1.7,1.5-1.7,1.5L9.4,17.5z M9.4,17.5"/>
</g>
</svg>
