<?xml version="1.0" encoding="utf-8"?>
<!-- Generator: Adobe Illustrator 21.0.0, SVG Export Plug-In . SVG Version: 6.00 Build 0)  -->
<svg version="1.1" id="图层_1" xmlns="http://www.w3.org/2000/svg" xmlns:xlink="http://www.w3.org/1999/xlink" x="0px" y="0px"
	 viewBox="0 0 19 19" style="enable-background:new 0 0 19 19;" xml:space="preserve">
<style type="text/css">
	.st0{fill:#484848;}
</style>
<path class="st0" d="M9.5,7.2c-1.2,0-2.3,1-2.3,2.3s1,2.3,2.3,2.3c1.2,0,2.3-1,2.3-2.3S10.7,7.2,9.5,7.2z M11.3,9.5
	c0,1-0.8,1.8-1.8,1.8c-1,0-1.8-0.8-1.8-1.8s0.8-1.8,1.8-1.8C10.5,7.7,11.3,8.5,11.3,9.5z"/>
<path class="st0" d="M4.8,18.9c1.5,0,3.3-0.6,5.1-1.6l0.1-0.1l0.1,0.1c1.9,1.1,3.6,1.6,5.1,1.6c1.2,0,2.1-0.3,2.8-1
	c1.5-1.5,1.3-4.6-0.6-7.9l-0.1-0.1l0.1-0.1c0.9-1.5,1.4-3,1.6-4.3l0,0c0.2-1.3,0-2.4-0.6-3.2l-0.1-0.1l0-0.1
	c0.1-0.2,0.1-0.4,0.1-0.6c0-0.8-0.7-1.5-1.5-1.5c-0.5,0-1,0.3-1.3,0.8l-0.1,0.1l-0.1,0c-1.5-0.1-3.5,0.5-5.4,1.6L10,2.6L9.9,2.5
	C6.6,0.6,3.6,0.4,2,1.9C1.4,2.6,1,3.5,1,4.7v0.1l-0.1,0C0.4,5.1,0,5.6,0,6.2c0,0.8,0.7,1.5,1.5,1.5h0.1l0,0.1c0.3,0.7,0.6,1.3,1,2
	l0.1,0.1L2.7,10c-1.9,3.3-2.2,6.4-0.6,7.9C2.7,18.6,3.6,18.9,4.8,18.9z M17.6,17.5c-0.6,0.6-1.4,0.8-2.3,0.8c-1.2,0-2.8-0.4-4.4-1.3
	l-0.3-0.1l0.2-0.2c1.1-0.8,2.2-1.7,3.3-2.7c1-1,1.9-2.1,2.7-3.3l0.2-0.2l0.1,0.3C18.6,13.7,18.8,16.3,17.6,17.5z M17,0.7
	c0.5,0,0.9,0.4,0.9,0.9c0,0.5-0.4,0.9-0.9,0.9s-0.9-0.4-0.9-0.9C16.1,1.1,16.5,0.7,17,0.7z M10.8,2.8c1.6-0.9,3.2-1.3,4.5-1.3l0.2,0
	l0,0.2c0.1,0.8,0.7,1.4,1.5,1.4c0.3,0,0.5-0.1,0.8-0.2l0.2-0.1L18,2.9c0.4,0.7,0.5,1.6,0.3,2.6c-0.1,1.1-0.6,2.3-1.3,3.6L17,9.3
	l-0.2-0.2C16,8,15.1,6.8,14.1,5.8c-1-1-2.1-1.9-3.3-2.7L10.6,3L10.8,2.8z M10,3.3L10,3.3c1.3,0.8,2.6,1.8,3.7,2.9
	c1.1,1.1,2.1,2.3,2.9,3.6l0.1,0.1L16.6,10c-0.8,1.3-1.7,2.5-2.9,3.6c-1.1,1.1-2.3,2.1-3.6,2.9L10,16.6l-0.1-0.1
	c-1.3-0.8-2.5-1.8-3.6-2.9c-1.1-1.1-2.1-2.3-2.9-3.6L3.4,9.9l0.1-0.1c0.8-1.3,1.7-2.5,2.9-3.6C7.5,5.1,8.7,4.1,10,3.3L10,3.3z
	 M1.5,7.1C1,7.1,0.6,6.7,0.6,6.2S1,5.3,1.5,5.3c0.5,0,0.9,0.4,0.9,0.9S2,7.1,1.5,7.1z M2.3,7.7L2.2,7.6l0.1-0.1C2.8,7.2,3,6.7,3,6.2
	c0-0.7-0.5-1.4-1.2-1.5l-0.1,0l0-0.2c0-0.9,0.3-1.7,0.8-2.2c1.3-1.3,3.8-1.1,6.7,0.5l0.3,0.1L9.2,3.1C8,3.9,6.9,4.8,5.9,5.8
	C4.9,6.8,4,8,3.2,9.1L3.1,9.3L2.9,9.1C2.7,8.6,2.4,8.1,2.3,7.7z M2.9,10.8l0.1-0.3l0.2,0.2C4,11.9,4.9,13,5.9,14
	c1,1,2.1,1.9,3.3,2.7l0.2,0.2L9.2,17c-1.6,0.9-3.1,1.3-4.4,1.3c-1,0-1.8-0.3-2.3-0.8C1.2,16.3,1.4,13.7,2.9,10.8z"/>
</svg>
