<?xml version="1.0" encoding="utf-8"?>
<!-- Generator: Adobe Illustrator 21.0.0, SVG Export Plug-In . SVG Version: 6.00 Build 0)  -->
<svg version="1.1" id="图层_1" xmlns="http://www.w3.org/2000/svg" xmlns:xlink="http://www.w3.org/1999/xlink" x="0px" y="0px"
	 viewBox="0 0 13 10" style="enable-background:new 0 0 13 10;" xml:space="preserve">
<style type="text/css">
	.st0{fill:#323333;}
</style>
<g>
	<path class="st0" d="M12.1,1.4H1c-0.4,0-0.7-0.3-0.7-0.7C0.3,0.3,0.6,0,1,0h11.1c0.4,0,0.7,0.3,0.7,0.7C12.9,1.1,12.5,1.4,12.1,1.4
		L12.1,1.4z M12.1,5.7H1C0.6,5.7,0.3,5.4,0.3,5c0-0.4,0.3-0.7,0.7-0.7h11.1c0.4,0,0.7,0.3,0.7,0.7C12.9,5.4,12.5,5.7,12.1,5.7
		L12.1,5.7z M12.1,10H1c-0.4,0-0.7-0.3-0.7-0.7c0-0.4,0.3-0.7,0.7-0.7h11.1c0.4,0,0.7,0.3,0.7,0.7C12.9,9.7,12.5,10,12.1,10L12.1,10
		z M12.1,10"/>
</g>
</svg>
