<?xml version="1.0" encoding="utf-8"?>
<!-- Generator: Adobe Illustrator 21.0.0, SVG Export Plug-In . SVG Version: 6.00 Build 0)  -->
<svg version="1.1" id="图层_1" xmlns="http://www.w3.org/2000/svg" xmlns:xlink="http://www.w3.org/1999/xlink" x="0px" y="0px"
	 viewBox="0 0 68 68" style="enable-background:new 0 0 68 68;" xml:space="preserve">
<style type="text/css">
	.st0{fill:#44C66B;}
	.st1{fill:#FFFFFF;}
</style>
<path class="st0" d="M34,0.1c18.7,0,34,15.3,34,34c0,18.7-15.3,34-34,34c-18.7,0-34-15.3-34-34C0,15.4,15.3,0.1,34,0.1L34,0.1z
	 M34,0.1"/>
<path class="st1" d="M54.4,21.3c-0.6-0.6-1.5-0.6-2.3,0L28.9,45.1L16.1,31.9c-0.6-0.6-1.5-0.6-2.3,0c-0.6,0.6-0.6,1.7,0,2.3l14,14.4
	c0.6,0.6,1.5,0.6,2.3,0l24.4-24.9C55,23,55,22,54.4,21.3"/>
<path class="st1" d="M28.9,49.8c-0.8,0-1.3-0.2-1.7-0.8l-14-14.4c-0.9-0.9-0.9-2.6,0-3.6c0.9-0.9,2.6-0.9,3.6,0l12.3,12.5l22.7-23
	c0.6-0.6,1.1-0.8,1.7-0.8c0.8,0,1.3,0.2,1.7,0.8c0.9,0.9,0.9,2.6,0,3.6L30.6,49C30.2,49.6,29.5,49.8,28.9,49.8L28.9,49.8z
	 M14.7,32.4c-0.2,0-0.4,0-0.4,0.2c-0.2,0.2-0.2,0.8,0,0.9l14,14.4c0.2,0.2,0.6,0.2,0.9,0L53.6,23c0.2-0.2,0.2-0.8,0-0.9
	c-0.2-0.2-0.2-0.2-0.4-0.2c-0.2,0-0.4,0-0.4,0.2l-24,24.4L15.3,32.6C15.1,32.4,14.9,32.4,14.7,32.4L14.7,32.4z M14.7,32.4"/>
</svg>
